<?xml version="1.0" encoding="utf-8"?>
<!-- Generator: Adobe Illustrator 13.0.0, SVG Export Plug-In . SVG Version: 6.00 Build 14948)  -->
<!DOCTYPE svg PUBLIC "-//W3C//DTD SVG 1.1//EN" "http://www.w3.org/Graphics/SVG/1.1/DTD/svg11.dtd">
<svg version="1.1" id="Layer_1" xmlns="http://www.w3.org/2000/svg" xmlns:xlink="http://www.w3.org/1999/xlink" x="0px" y="0px"
	 width="1193.761px" height="1257.024px" viewBox="0 0 1193.761 1257.024" enable-background="new 0 0 1193.761 1257.024"
	 xml:space="preserve">
<g>
	<g display="none">
		<path display="inline" d="M-614.477,1656.968c-1.772,0-3.1,1.176-3.988,3.531l-23.852,63.178
			c-2.354,5.596-4.058,10.82-5.084,15.691c-1.026,4.85-1.535,8.604-1.535,11.262c0,4.127,1.234,7.439,3.752,9.936
			c2.492,2.518,7.132,3.754,13.92,3.754h6.624c2.656,0,4.403,0.23,5.292,0.676c0.883,0.441,1.328,1.398,1.328,2.867
			c0,2.938-2.493,4.406-7.508,4.406c-7.063,0-14.946-0.209-23.644-0.652s-16.413-0.664-23.2-0.664c-1.165,0-3.451,0.07-6.832,0.221
			c-3.406,0.141-7.508,0.291-12.38,0.443c-4.852,0.139-10.168,0.279-15.904,0.443c-5.736,0.141-11.402,0.209-16.995,0.209
			c-5.598,0-8.396-1.469-8.396-4.406c0-2.354,1.748-3.543,5.292-3.543c2.053,0,4.408-0.072,7.069-0.211
			c2.655-0.152,4.872-0.373,6.619-0.666c10.307-1.479,18.047-5.676,23.2-12.602c5.153-6.9,9.937-15.971,14.364-27.164
			l110.896-277.45c2.661-6.481,4.778-11.052,6.412-13.698c1.609-2.646,3.593-3.976,5.948-3.976c3.238,0,6.926,4.712,11.052,14.13
			c1.772,4.129,5.08,12.078,9.932,23.867c4.872,11.785,10.539,25.916,17.02,42.414c6.481,16.496,13.55,34.309,21.196,53.453
			c7.671,19.143,15.248,38.146,22.756,56.986c7.508,18.863,14.646,36.607,21.433,53.244c6.782,16.648,12.518,30.557,17.227,41.75
			c4.127,10.025,8.021,18.047,11.709,24.086c3.683,6.039,7.133,10.748,10.396,14.129c3.219,3.395,6.249,5.748,9.048,7.066
			c2.799,1.328,5.366,2.285,7.74,2.877c3.218,0.596,6.461,1.039,9.704,1.318c3.238,0.305,6.2,0.445,8.836,0.445
			c3.82,0,5.761,1.189,5.761,3.543c0,1.773-1.333,2.938-3.988,3.533c-2.636,0.582-8.091,0.873-16.349,0.873
			c-7.947,0-19.444,0-34.46,0c-15.016,0-31.364-0.291-49.036-0.873c-4.126-0.293-7.37-0.596-9.724-0.887s-3.52-1.178-3.52-2.646
			c0-2.354,2.054-3.684,6.18-3.988c1.466-0.582,2.794-1.76,3.964-3.52c1.189-1.771,1.189-3.988,0-6.633l-35.348-93.664
			c-0.864-2.064-2.359-3.09-4.408-3.09H-614.477z M-524.357,1634.876c2.054,0,2.799-0.877,2.217-2.648l-39.781-109.125
			c-0.277-0.887-0.583-1.771-0.859-2.658c-0.306-0.885-0.75-1.328-1.333-1.328c-0.602,0-1.115,0.443-1.56,1.328
			c-0.444,0.887-0.814,1.771-1.096,2.658l-40.645,108.682c-0.603,2.064,0,3.092,1.772,3.092H-524.357z"/>
		<path display="inline" d="M-322.897,1566.394c0-16.791,0-30.326,0-40.643c0-10.598,0-19.145,0-25.627
			c0-6.771-0.069-12.16-0.212-16.123c-0.163-3.986-0.37-7.74-0.677-11.262c-0.883-14.434-5.898-22.688-15.016-24.75
			c-2.354-0.586-4.941-1.027-7.74-1.318c-2.799-0.304-5.504-0.444-8.16-0.444c-4.709,0-7.063-1.469-7.063-4.431
			c0-2.354,3.52-3.52,10.607-3.52c4.103,0,8.836,0.069,14.128,0.21c5.296,0.163,10.612,0.304,15.904,0.442
			c5.291,0.162,10.376,0.303,15.248,0.443c4.852,0.151,8.91,0.223,12.148,0.223c2.636,0,6.18-0.071,10.613-0.223
			c4.403-0.141,9.117-0.281,14.127-0.443c5.015-0.139,10.075-0.279,15.248-0.442c5.133-0.141,9.773-0.21,13.9-0.21
			c6.2,0,9.28,1.165,9.28,3.52c0,2.962-2.354,4.431-7.063,4.431c-2.359,0-4.502,0.071-6.412,0.21
			c-1.915,0.162-4.201,0.525-6.832,1.107c-5.904,1.178-9.961,3.767-12.153,7.73c-2.211,3.986-3.613,9.792-4.196,17.465
			c-0.301,3.521-0.533,7.275-0.676,11.262c-0.138,3.963-0.207,9.352-0.207,16.123c0,6.482,0,15.029,0,25.627
			c0,10.316,0,23.852,0,40.643v77.762c0,21.51,0.069,40.652,0.207,57.439c0.143,16.787,0.676,29.893,1.564,39.314
			c0.583,5.898,1.979,10.748,4.196,14.572c2.191,3.848,6.693,6.189,13.456,7.074c3.238,0.596,6.994,1.039,11.284,1.318
			c4.265,0.305,8.021,0.445,11.259,0.445c4.714,0,7.069,1.189,7.069,3.543c0,2.938-2.799,4.406-8.396,4.406
			c-14.734,0-28.422-0.209-41.083-0.652s-21.941-0.664-27.84-0.664c-2.661,0-6.181,0.07-10.608,0.221
			c-4.408,0.141-9.211,0.291-14.344,0.443c-5.173,0.139-10.465,0.279-15.924,0.443c-5.43,0.141-10.376,0.209-14.784,0.209
			c-5.899,0-8.835-1.469-8.835-4.406c0-2.354,2.354-3.543,7.063-3.543c3.243,0,6.18-0.141,8.841-0.445
			c2.655-0.279,4.99-0.723,7.063-1.318c4.408-0.885,7.508-3.158,9.28-6.84c1.771-3.686,2.937-8.77,3.52-15.252
			c1.189-9.42,1.841-22.453,2.004-39.102c0.143-16.625,0.212-35.697,0.212-57.207V1566.394z"/>
		<path display="inline" d="M-123.189,1566.394c0-16.791,0-30.326,0-40.643c0-10.598,0-19.145,0-25.627
			c0-6.771-0.089-12.16-0.232-16.123c-0.138-3.986-0.37-7.74-0.651-11.262c-0.607-7.672-2.073-13.407-4.433-17.232
			c-2.354-3.823-7.202-6.481-14.571-7.963c-1.772-0.582-4.265-0.945-7.508-1.107c-3.238-0.139-6.481-0.21-9.724-0.21
			c-5.01,0-7.508-1.328-7.508-3.986c0-2.646,3.243-3.964,9.724-3.964c5.874,0,11.916,0.069,18.116,0.21
			c6.18,0.163,11.985,0.304,17.444,0.442c5.455,0.162,10.376,0.303,14.804,0.443c4.408,0.151,7.789,0.223,10.168,0.223
			c3.826,0,8.535-0.071,14.127-0.223c5.598-0.141,11.402-0.281,17.444-0.443c6.037-0.139,11.797-0.279,17.232-0.442
			c5.454-0.141,9.956-0.21,13.476-0.21c14.152,0,28.215,1.096,42.204,3.311c13.989,2.203,27.021,7.438,39.1,15.682
			c2.941,2.063,6.18,5.013,9.724,8.836c3.52,3.836,6.832,8.326,9.932,13.467c3.105,5.166,5.597,10.982,7.508,17.463
			c1.916,6.484,2.868,13.408,2.868,20.752c0,8.256-0.952,16.359-2.868,24.309c-1.911,7.953-5.08,15.902-9.487,23.867
			c-4.433,7.949-10.401,16.111-17.909,24.504c-7.508,8.395-16.856,17.162-28.047,26.303c19.725,25.029,37.327,47.193,52.787,66.477
			c15.485,19.307,29.824,35.873,43.088,49.711c6.18,6.482,11.916,11.635,17.232,15.461c5.291,3.836,10.074,6.785,14.364,8.836
			c4.265,2.076,7.858,3.475,10.82,4.197c2.937,0.746,5.292,1.26,7.064,1.551c4.709,0.873,8.835,1.318,12.38,1.318
			c3.524,0,5.296,1.189,5.296,3.543c0,2.938-2.799,4.406-8.396,4.406h-41.972c-12.38,0-21.941-0.582-28.724-1.76
			c-6.787-1.178-12.967-3.381-18.56-6.635c-9.423-4.988-18.772-12.799-28.052-23.41c-9.28-10.607-20.1-24.436-32.455-41.527
			c-4.433-6.178-8.93-12.52-13.481-19.002c-4.566-6.471-8.835-12.51-12.824-18.117c-3.963-5.586-7.508-10.518-10.608-14.795
			c-3.075-4.258-5.36-7.287-6.832-9.061c-1.772-2.051-4.428-3.086-7.952-3.086L-67.529,1634c-2.354,0-3.52,1.168-3.52,3.521v6.189
			c0,20.625,0.069,39.184,0.207,55.672c0.144,16.496,0.819,29.449,1.984,38.869c0.583,6.48,1.91,11.938,3.983,16.355
			c2.054,4.418,6.486,7.064,13.249,7.949c3.238,0.596,6.994,1.039,11.259,1.318c4.27,0.305,7.74,0.445,10.401,0.445
			c3.52,0,5.291,1.189,5.291,3.543c0,2.938-2.937,4.406-8.835,4.406c-6.481,0-13.175-0.068-20.1-0.209
			c-6.926-0.164-13.407-0.305-19.448-0.443c-6.037-0.152-11.329-0.303-15.899-0.443c-4.571-0.15-7.721-0.221-9.493-0.221
			c-2.073,0-5.247,0.07-9.512,0.221c-4.265,0.141-8.904,0.291-13.895,0.443c-5.015,0.139-10.262,0.279-15.692,0.443
			c-5.459,0.141-10.376,0.209-14.809,0.209c-5.899,0-8.836-1.469-8.836-4.406c0-2.354,2.354-3.543,7.063-3.543
			c3.243,0,6.205-0.141,8.836-0.445c2.661-0.279,5.015-0.723,7.068-1.318c4.428-0.885,7.439-3.531,9.068-7.949
			c1.609-4.418,2.868-9.875,3.756-16.355c1.165-9.42,1.842-22.373,1.979-38.869c0.144-16.488,0.232-34.906,0.232-55.227V1566.394z
			 M-71.049,1601.296c0,4.127,1.303,6.775,3.964,7.953c4.709,1.48,10.094,2.576,16.136,3.322c6.012,0.723,11.842,1.096,17.439,1.096
			c4.428,0,8.184-0.141,11.259-0.441c3.105-0.281,5.83-0.725,8.185-1.33c2.354-0.584,4.408-1.318,6.18-2.205
			c1.772-0.887,3.688-2.063,5.736-3.531c6.788-5.014,12.824-12.73,18.121-23.201c5.316-10.447,7.947-24.809,7.947-43.064
			c0-15.623-2.285-28.646-6.832-39.105c-4.571-10.457-10.327-18.781-17.232-24.971c-6.921-6.178-14.291-10.518-22.104-13.036
			c-7.809-2.494-14.946-3.753-21.428-3.753c-11.773,0-19.587,0.607-23.407,1.773c-2.661,0.885-3.964,2.949-3.964,6.18V1601.296z"/>
		<path display="inline" d="M252.334,1463.015l-65.824,1.762c-12.968,0.596-22.524,1.62-28.729,3.09
			c-6.18,1.479-10.89,4.723-14.127,9.723c-2.359,3.24-4.058,6.18-5.084,8.838c-1.026,2.658-1.841,4.859-2.429,6.623
			c-0.883,3.543-2.492,5.314-4.847,5.314c-2.661,0-3.989-2.354-3.989-7.078c0-1.76,0.444-5.234,1.328-10.385
			c0.889-5.154,1.847-10.598,2.868-16.346c1.026-5.737,2.054-10.958,3.104-15.68c1.027-4.712,1.679-7.521,1.979-8.395
			c1.165-5.585,2.938-8.396,5.297-8.396c1.772,0,3.983,0.734,6.644,2.203c2.636,1.481,6.762,2.521,12.355,3.103
			c6.486,0.583,13.619,1.096,21.428,1.538c7.814,0.443,15.391,0.666,22.76,0.666h174.948c7.063,0,13.101-0.223,18.116-0.666
			c5.015-0.442,9.117-0.955,12.38-1.538c3.218-0.582,5.805-1.108,7.72-1.55c1.91-0.444,3.312-0.666,4.195-0.666
			c2.355,0,3.545,3.102,3.545,9.279c0,2.357-0.069,5.817-0.232,10.376c-0.143,4.571-0.281,9.364-0.444,14.364
			c-0.138,5.014-0.281,9.945-0.444,14.807c-0.138,4.85-0.207,8.768-0.207,11.707c-0.583,4.709-1.915,7.063-3.988,7.063
			c-2.938,0-4.571-2.938-4.848-8.836l-0.444-4.85c-0.306-2.949-1.328-5.816-3.1-8.629c-1.752-2.799-4.64-5.363-8.609-7.717
			c-3.983-2.355-9.28-4.268-15.899-5.758c-6.625-1.471-14.809-2.358-24.528-2.637l-55.66-1.33v181.141
			c0,20.32,0.069,38.811,0.212,55.447c0.139,16.635,0.814,29.67,2.004,39.09c0.583,6.189,1.91,11.496,3.963,15.914
			c2.054,4.418,6.481,7.064,13.244,7.949c3.243,0.596,6.994,1.039,11.284,1.318c4.27,0.305,8.021,0.445,11.264,0.445
			c4.709,0,7.064,1.189,7.064,3.543c0,2.938-2.799,4.406-8.392,4.406c-14.739,0-28.428-0.209-41.089-0.652
			s-22.104-0.664-28.279-0.664c-2.661,0-6.18,0.07-10.613,0.221c-4.408,0.141-9.211,0.291-14.339,0.443
			c-5.178,0.139-10.47,0.279-15.924,0.443c-5.435,0.141-10.375,0.209-14.784,0.209c-5.899,0-8.836-1.469-8.836-4.406
			c0-2.354,2.354-3.543,7.063-3.543c3.243,0,6.181-0.141,8.836-0.445c2.661-0.279,5.015-0.723,7.068-1.318
			c4.428-0.885,7.508-3.531,9.28-7.949c1.772-4.418,2.937-9.875,3.544-16.355c1.165-9.42,1.816-22.373,1.979-38.869
			c0.139-16.488,0.212-34.906,0.212-55.227V1463.015z"/>
		<path display="inline" d="M507.258,1566.394c0-16.791,0-30.326,0-40.643c0-10.598,0-19.145,0-25.627
			c0-6.771-0.069-12.16-0.212-16.123c-0.163-3.986-0.37-7.74-0.676-11.262c-0.583-7.672-2.048-13.407-4.403-17.232
			c-2.354-3.823-7.231-6.481-14.577-7.963c-1.772-0.582-4.29-0.945-7.528-1.107c-3.243-0.139-6.486-0.21-9.704-0.21
			c-5.011,0-7.528-1.328-7.528-3.986c0-2.646,3.238-3.964,9.72-3.964c5.903,0,11.94,0.069,18.121,0.21
			c6.18,0.163,12.01,0.304,17.464,0.442c5.43,0.162,10.376,0.303,14.784,0.443c4.428,0.151,7.809,0.223,10.164,0.223
			c3.825,0,8.535-0.071,14.157-0.223c5.567-0.141,11.397-0.281,17.439-0.443c6.037-0.139,11.772-0.279,17.232-0.442
			c5.455-0.141,9.931-0.21,13.475-0.21c14.133,0,28.191,1.096,42.18,3.311c13.989,2.203,27.026,7.438,39.104,15.682
			c2.938,2.063,6.2,5.013,9.725,8.836c3.544,3.836,6.852,8.326,9.932,13.467c3.1,5.166,5.598,10.982,7.532,17.463
			c1.91,6.484,2.868,13.408,2.868,20.752c0,8.256-0.958,16.359-2.868,24.309c-1.935,7.953-5.084,15.902-9.517,23.867
			c-4.403,7.949-10.376,16.111-17.884,24.504c-7.508,8.395-16.857,17.162-28.047,26.303c19.725,25.029,37.327,47.193,52.787,66.477
			c15.46,19.307,29.824,35.873,43.068,49.711c6.199,6.482,11.936,11.635,17.231,15.461c5.316,3.836,10.095,6.785,14.359,8.836
			c4.271,2.076,7.884,3.475,10.82,4.197c2.937,0.746,5.316,1.26,7.063,1.551c4.715,0.873,8.841,1.318,12.385,1.318
			c3.545,0,5.292,1.189,5.292,3.543c0,2.938-2.799,4.406-8.396,4.406h-41.968c-12.359,0-21.941-0.582-28.703-1.76
			c-6.787-1.178-12.963-3.381-18.561-6.635c-9.442-4.988-18.771-12.799-28.052-23.41c-9.28-10.607-20.101-24.436-32.48-41.527
			c-4.407-6.178-8.905-12.52-13.476-19.002c-4.57-6.471-8.836-12.51-12.8-18.117c-3.988-5.586-7.508-10.518-10.612-14.795
			c-3.1-4.258-5.386-7.287-6.852-9.061c-1.771-2.051-4.408-3.086-7.952-3.086L562.938,1634c-2.38,0-3.544,1.168-3.544,3.521v6.189
			c0,20.625,0.069,39.184,0.232,55.672c0.143,16.496,0.795,29.449,1.984,38.869c0.583,6.48,1.91,11.938,3.964,16.355
			c2.073,4.418,6.481,7.064,13.269,7.949c3.238,0.596,6.994,1.039,11.259,1.318c4.27,0.305,7.74,0.445,10.376,0.445
			c3.544,0,5.316,1.189,5.316,3.543c0,2.938-2.962,4.406-8.836,4.406c-6.481,0-13.199-0.068-20.1-0.209
			c-6.926-0.164-13.407-0.305-19.444-0.443c-6.042-0.152-11.358-0.303-15.904-0.443c-4.571-0.15-7.74-0.221-9.512-0.221
			c-2.053,0-5.223,0.07-9.492,0.221c-4.265,0.141-8.905,0.291-13.92,0.443c-5.01,0.139-10.237,0.279-15.692,0.443
			c-5.435,0.141-10.375,0.209-14.783,0.209c-5.899,0-8.836-1.469-8.836-4.406c0-2.354,2.354-3.543,7.063-3.543
			c3.243,0,6.18-0.141,8.841-0.445c2.655-0.279,4.985-0.723,7.063-1.318c4.408-0.885,7.439-3.531,9.048-7.949
			c1.629-4.418,2.888-9.875,3.752-16.355c1.189-9.42,1.841-22.373,2.004-38.869c0.143-16.488,0.212-34.906,0.212-55.227V1566.394z
			 M559.394,1601.296c0,4.127,1.328,6.775,3.988,7.953c4.709,1.48,10.07,2.576,16.112,3.322c6.037,0.723,11.866,1.096,17.464,1.096
			c4.408,0,8.159-0.141,11.26-0.441c3.08-0.281,5.81-0.725,8.164-1.33c2.354-0.584,4.428-1.318,6.2-2.205
			c1.752-0.887,3.662-2.063,5.735-3.531c6.763-5.014,12.805-12.73,18.121-23.201c5.292-10.447,7.947-24.809,7.947-43.064
			c0-15.623-2.286-28.646-6.852-39.105c-4.571-10.457-10.307-18.781-17.232-24.971c-6.925-6.178-14.295-10.518-22.084-13.036
			c-7.81-2.494-14.942-3.753-21.428-3.753c-11.798,0-19.582,0.607-23.408,1.773c-2.661,0.885-3.988,2.949-3.988,6.18V1601.296z"/>
		<path display="inline" d="M858.506,1656.968c-1.771,0-3.104,1.176-3.988,3.531l-23.852,63.178
			c-2.359,5.596-4.058,10.82-5.084,15.691c-1.027,4.85-1.54,8.604-1.54,11.262c0,4.127,1.233,7.439,3.757,9.936
			c2.492,2.518,7.132,3.754,13.92,3.754h6.619c2.66,0,4.408,0.23,5.291,0.676c0.889,0.441,1.333,1.398,1.333,2.867
			c0,2.938-2.497,4.406-7.508,4.406c-7.068,0-14.946-0.209-23.645-0.652c-8.697-0.443-16.417-0.664-23.2-0.664
			c-1.164,0-3.45,0.07-6.831,0.221c-3.406,0.141-7.508,0.291-12.385,0.443c-4.848,0.139-10.164,0.279-15.899,0.443
			c-5.736,0.141-11.402,0.209-17,0.209c-5.593,0-8.392-1.469-8.392-4.406c0-2.354,1.747-3.543,5.291-3.543
			c2.054,0,4.408-0.072,7.063-0.211c2.661-0.152,4.877-0.373,6.625-0.666c10.307-1.479,18.047-5.676,23.199-12.602
			c5.154-6.9,9.932-15.971,14.365-27.164l110.896-277.45c2.655-6.481,4.778-11.052,6.412-13.698
			c1.609-2.646,3.589-3.976,5.943-3.976c3.243,0,6.925,4.712,11.052,14.13c1.772,4.129,5.084,12.078,9.937,23.867
			c4.872,11.785,10.539,25.916,17.021,42.414c6.48,16.496,13.545,34.309,21.195,53.453c7.671,19.143,15.248,38.146,22.756,56.986
			c7.508,18.863,14.641,36.607,21.428,53.244c6.787,16.648,12.523,30.557,17.232,41.75c4.127,10.025,8.021,18.047,11.703,24.086
			c3.688,6.039,7.139,10.748,10.401,14.129c3.218,3.395,6.249,5.748,9.048,7.066c2.799,1.328,5.36,2.285,7.74,2.877
			c3.218,0.596,6.456,1.039,9.699,1.318c3.243,0.305,6.205,0.445,8.836,0.445c3.825,0,5.76,1.189,5.76,3.543
			c0,1.773-1.327,2.938-3.988,3.533c-2.631,0.582-8.09,0.873-16.344,0.873c-7.951,0-19.448,0-34.464,0s-31.359-0.291-49.036-0.873
			c-4.127-0.293-7.364-0.596-9.719-0.887c-2.355-0.291-3.525-1.178-3.525-2.646c0-2.354,2.054-3.684,6.181-3.988
			c1.471-0.582,2.799-1.76,3.964-3.52c1.189-1.771,1.189-3.988,0-6.633l-35.348-93.664c-0.864-2.064-2.355-3.09-4.408-3.09H858.506z
			 M948.626,1634.876c2.048,0,2.799-0.877,2.216-2.648l-39.78-109.125c-0.281-0.887-0.582-1.771-0.864-2.658
			c-0.301-0.885-0.745-1.328-1.327-1.328c-0.607,0-1.12,0.443-1.565,1.328c-0.438,0.887-0.814,1.771-1.096,2.658l-40.639,108.682
			c-0.607,2.064,0,3.092,1.771,3.092H948.626z"/>
		<path display="inline" d="M1082.93,1481.566c-2.656-6.191-5.08-11.182-7.296-15.016c-2.192-3.836-4.64-6.915-7.276-9.281
			c-2.66-2.357-5.528-4.198-8.628-5.516c-3.075-1.328-6.551-2.587-10.376-3.764c-3.238-0.877-6.481-1.391-9.725-1.553
			c-3.238-0.139-5.735-0.21-7.508-0.21c-3.544,0-5.291-1.328-5.291-3.986c0-1.76,1.096-2.868,3.312-3.312
			c2.192-0.442,4.922-0.652,8.159-0.652c11.798,0,23.482,0.21,35.141,0.652c11.61,0.443,21.266,0.666,28.937,0.666
			c5.598,0,13.243-0.223,22.968-0.666c9.719-0.442,20.169-0.652,31.359-0.652c2.66,0,5.016,0.292,7.063,0.874
			c2.078,0.595,3.105,1.622,3.105,3.09c0,2.658-2.217,3.986-6.624,3.986c-3.545,0-6.857,0.141-9.932,0.444
			c-3.101,0.291-5.529,1.165-7.301,2.646c-2.962,2.063-4.428,5.153-4.428,9.268c0,2.961,0.883,7.37,2.655,13.269
			c1.772,5.887,4.27,12.803,7.508,20.752l75.992,200.596h1.772c3.238-7.961,7.369-18.35,12.38-31.152
			c4.99-12.824,10.444-26.51,16.344-41.082c5.879-14.584,11.916-29.613,18.12-45.072c6.181-15.459,11.916-29.963,17.232-43.521
			c5.292-13.533,10.001-25.543,14.127-36.014c4.127-10.445,7.064-18.174,8.836-23.188c1.17-2.939,2.123-5.889,2.868-8.827
			c0.726-2.949,1.096-5.457,1.096-7.52c0-1.76-0.438-3.462-1.303-5.071c-0.889-1.632-2.38-2.728-4.433-3.322
			c-2.656-0.887-5.523-1.469-8.604-1.76c-3.101-0.304-6.131-0.444-9.068-0.444c-2.053,0-3.825-0.231-5.291-0.677
			c-1.496-0.429-2.217-1.387-2.217-2.867c0-2.938,4.127-4.406,12.38-4.406c11.171,0,20.983,0.21,29.38,0.652
			c8.392,0.443,14.059,0.666,17,0.666c1.772,0,4.334-0.071,7.74-0.223c3.381-0.141,6.994-0.281,10.82-0.443
			c3.82-0.139,7.784-0.279,11.911-0.442c4.132-0.141,7.813-0.21,11.052-0.21c6.18,0,9.28,1.318,9.28,3.964
			c0,2.658-2.354,3.986-7.063,3.986c-2.355,0-5.523,0.21-9.488,0.654c-3.988,0.441-8.045,1.994-12.172,4.64
			c-1.471,0.887-3.006,2.145-4.615,3.754c-1.634,1.632-3.406,3.917-5.316,6.853c-1.915,2.939-4.058,6.788-6.412,11.485
			c-2.359,4.723-5.016,10.598-7.952,17.674c-4.408,10.32-8.534,19.809-12.36,28.494c-3.846,8.686-7.74,17.523-11.703,26.512
			c-3.988,8.99-8.322,18.631-13.037,28.938c-4.733,10.318-10.025,22.244-15.899,35.779c-14.151,32.41-26.23,60.17-36.236,83.287
			c-10.025,23.131-17.533,40.283-22.523,51.473c-2.962,6.484-5.386,11.787-7.296,15.902c-1.915,4.139-3.544,7.451-4.877,9.945
			c-1.303,2.496-2.631,4.268-3.964,5.293c-1.327,1.039-2.725,1.551-4.195,1.551c-2.962,0-5.454-1.924-7.508-5.748
			c-2.073-3.824-5.153-10.889-9.28-21.195L1082.93,1481.566z"/>
		<path display="inline" d="M1443.433,1566.394c0-16.791,0-30.326,0-40.643c0-10.598,0-19.145,0-25.627
			c0-6.771-0.069-12.16-0.207-16.123c-0.163-3.986-0.376-7.74-0.677-11.262c-0.582-7.672-2.053-13.407-4.408-17.232
			c-2.354-3.823-7.227-6.481-14.571-7.963c-1.772-0.582-4.289-0.945-7.532-1.107c-3.243-0.139-6.481-0.21-9.7-0.21
			c-5.015,0-7.532-1.328-7.532-3.986c0-2.646,3.243-3.964,9.725-3.964c5.898,0,11.94,0.069,18.115,0.21
			c6.18,0.163,12.079,0.232,17.677,0.232c5.898,0.291,11.19,0.513,15.899,0.653c4.714,0.151,8.697,0.223,11.94,0.223
			c2.354,0,6.481,0,12.36,0c6.199,0,13.101,0,20.771,0c7.65,0,15.766,0,24.296,0c8.534,0,16.486,0,23.856,0
			c7.369,0,13.707-0.071,19.004-0.223c5.292-0.141,8.673-0.222,10.164-0.222c4.126-0.582,7.883-1.026,11.264-1.317
			c3.382-0.304,5.968-0.733,7.74-1.328c1.165-0.291,2.354-0.664,3.52-1.108c1.165-0.441,2.354-0.664,3.544-0.664
			c1.772,0,2.636,1.328,2.636,3.986c0,1.468-0.444,4.045-1.303,7.718c-0.889,3.685-1.634,10.68-2.217,20.986
			c0,1.189-0.068,3.102-0.231,5.748c-0.144,2.646-0.375,5.525-0.656,8.615c-0.302,3.102-0.514,6.037-0.652,8.836
			c-0.162,2.799-0.375,4.793-0.676,5.971c-0.302,1.178-0.745,2.285-1.328,3.311c-0.582,1.025-1.609,1.539-3.08,1.539
			c-2.655,0-3.988-2.053-3.988-6.18c0-1.469-0.139-3.822-0.439-7.064c-0.306-3.242-1.026-6.191-2.217-8.838
			c-1.471-3.822-4.032-7.063-7.72-9.721c-3.683-2.658-10.978-4.713-21.867-6.18c-1.772-0.305-5.667-0.514-11.709-0.678
			c-6.036-0.141-12.448-0.277-19.211-0.432c-6.787-0.15-13.269-0.291-19.449-0.441c-6.175-0.152-10.301-0.223-12.379-0.223
			c-2.054,0-3.076,1.469-3.076,4.418v111.77c0,3.254,1.022,4.875,3.076,4.875c2.354,0,6.925,0,13.712,0c6.763,0,13.826,0,21.196,0
			c7.671,0,14.872-0.068,21.66-0.234c6.762-0.139,11.472-0.361,14.127-0.652c5.297-0.594,9.655-1.258,13.036-1.994
			c3.382-0.732,6.111-2.273,8.16-4.639c3.242-3.824,5.598-5.748,7.088-5.748c2.054,0,3.08,1.189,3.08,3.543
			c0,1.469-0.375,4.408-1.096,8.838c-0.745,4.406-1.54,12.217-2.429,23.41c0,2.355-0.163,5.014-0.439,7.953
			c-0.306,2.949-0.513,5.898-0.676,8.836c-0.144,2.949-0.281,5.598-0.444,7.951c-0.139,2.355-0.212,3.986-0.212,4.863
			c0,1.76-0.163,3.613-0.439,5.525c-0.307,1.922-1.472,2.867-3.545,2.867c-2.636,0-3.963-1.318-3.963-3.977
			c-0.307-2.354-0.514-4.861-0.677-7.508c-0.144-2.658-0.514-5.457-1.096-8.393c-1.189-4.422-3.544-8.186-7.068-11.262
			c-3.545-3.104-9.443-5.086-17.672-5.971c-2.078-0.291-6.042-0.514-11.94-0.664c-5.874-0.152-12.148-0.291-18.768-0.445
			c-6.624-0.15-13.036-0.219-19.217-0.219c-5.898,0-10.163,0-12.824,0c-1.747,0-2.631,1.479-2.631,4.418v34.906
			c0,3.836,0,8.988,0,15.457c0,6.189,0,12.814,0,19.879c0,6.783,0,13.268,0,19.445c0,5.898,0,10.457,0,13.688
			c0.277,7.672,1.096,13.92,2.424,18.793c1.328,4.852,3.826,8.605,7.508,11.264c3.683,2.646,8.979,4.488,15.899,5.527
			c6.926,1.023,15.974,1.537,27.169,1.537c5.898,0,12.824-0.223,20.771-0.664c7.952-0.432,14.878-1.994,20.776-4.641
			c5.879-2.645,10.307-6.471,13.244-11.484c2.937-5.012,5.153-12.078,6.624-21.205c0.884-4.42,2.492-6.635,4.872-6.635
			c1.747,0,2.773,0.746,3.08,2.215c0.301,1.469,0.439,3.381,0.439,5.736c0,2.656-0.208,6.273-0.651,10.832
			c-0.444,4.568-0.958,9.279-1.561,14.141c-0.587,4.852-1.17,9.572-1.752,14.131c-0.607,4.568-1.189,7.881-1.772,9.943
			c-0.884,2.949-1.771,5.166-2.655,6.635c-0.889,1.469-2.217,2.564-3.964,3.311c-1.772,0.723-4.058,1.166-6.856,1.33
			c-2.799,0.137-6.273,0.209-10.376,0.209c-16.788,0-31.384-0.141-43.744-0.443c-12.38-0.293-23.269-0.584-32.688-0.887
			c-9.442-0.582-17.771-0.955-24.972-1.096c-7.231-0.15-14.201-0.221-20.988-0.221c-2.355,0-5.899,0-10.608,0
			c-4.408,0-9.28,0.15-14.571,0.443c-5.016,0-10.238,0.15-15.692,0.443c-5.435,0.291-10.376,0.43-14.784,0.43
			c-5.898,0-8.836-1.469-8.836-4.406c0-2.354,2.355-3.543,7.064-3.543c3.238,0,6.18-0.141,8.836-0.445
			c2.66-0.279,4.99-0.723,7.063-1.318c4.407-0.885,7.438-3.531,9.048-7.949c1.634-4.418,2.893-9.875,3.756-16.355
			c1.19-9.42,1.842-22.373,2.005-38.869c0.138-16.488,0.207-34.906,0.207-55.227V1566.394z"/>
		<path display="inline" d="M1777.893,1644.156c0,28.572,0.351,50.514,1.096,65.834c0.726,15.318,3.451,25.031,8.185,29.148
			c1.747,1.771,3.964,3.25,6.624,4.43c2.656,1.164,5.968,2.133,9.932,2.867c3.988,0.734,8.979,1.328,15.016,1.773
			c6.042,0.441,13.338,0.65,21.872,0.65c11.773,0,21.941-0.582,30.501-1.771c8.53-1.166,15.599-4.699,21.191-10.598
			c2.66-2.938,5.084-7.064,7.3-12.371c2.217-5.291,3.589-10,4.196-14.129c0.281-2.064,0.726-3.684,1.328-4.873
			c0.582-1.166,1.752-1.76,3.524-1.76c2.354,0,3.544,2.506,3.544,7.508c0,1.178-0.163,3.904-0.444,8.172
			c-0.301,4.281-0.814,9.059-1.54,14.365c-0.745,5.291-1.491,10.539-2.217,15.68c-0.745,5.162-1.535,9.361-2.423,12.59
			c-0.607,2.367-1.328,4.348-2.217,5.971c-0.884,1.621-2.285,2.867-4.195,3.754c-1.911,0.873-4.571,1.467-7.952,1.76
			c-3.401,0.303-7.879,0.443-13.477,0.443c-15.904,0-29.824-0.141-41.76-0.443c-11.916-0.293-22.898-0.584-32.899-0.887
			c-10.025-0.582-19.236-0.955-27.633-1.096c-8.392-0.15-17.158-0.221-26.275-0.221c-2.359,0-5.903,0-10.612,0
			c-4.408,0-9.28,0.15-14.572,0.443c-5.015,0-10.237,0.15-15.691,0.443c-5.435,0.291-10.376,0.43-14.784,0.43
			c-5.898,0-8.836-1.469-8.836-4.406c0-2.354,2.354-3.543,7.064-3.543c3.242,0,6.18-0.141,8.835-0.445
			c2.661-0.279,4.991-0.723,7.069-1.318c4.402-0.885,7.438-3.531,9.043-7.949c1.634-4.418,2.893-9.875,3.756-16.355
			c1.189-9.42,1.842-22.373,2.004-38.869c0.144-16.488,0.213-34.906,0.213-55.227v-77.762c0-16.791,0-30.326,0-40.643
			c0-10.598,0-19.145,0-25.627c0-6.771-0.069-12.16-0.213-16.123c-0.162-3.986-0.37-7.74-0.676-11.262
			c-0.583-7.672-2.049-13.407-4.408-17.232c-2.354-3.823-7.227-6.481-14.571-7.963c-3.544-0.873-8.392-1.317-14.597-1.317
			c-5.015,0-7.508-1.328-7.508-3.986c0-2.646,3.243-3.964,9.725-3.964c5.291,0,10.82,0.069,16.575,0.21
			c5.736,0.163,11.403,0.304,17,0.442c5.598,0.162,10.751,0.303,15.461,0.443c4.709,0.151,8.534,0.223,11.496,0.223
			c2.655,0,6.481-0.071,11.491-0.223c4.99-0.141,10.376-0.281,16.111-0.443c5.736-0.139,11.497-0.279,17.232-0.442
			c5.736-0.141,10.82-0.21,15.253-0.21c6.175,0,9.28,1.318,9.28,3.964c0,2.658-2.661,3.986-7.952,3.986
			c-2.38,0-5.179,0.071-8.396,0.21c-3.263,0.162-6.2,0.525-8.836,1.107c-5.898,1.178-9.956,3.767-12.148,7.73
			c-2.216,3.986-3.613,9.792-4.195,17.465c-0.306,3.521-0.538,7.275-0.676,11.262c-0.144,3.963-0.213,9.352-0.213,16.123
			c0,6.482,0,15.029,0,25.627c0,10.316,0,23.852,0,40.643V1644.156z"/>
	</g>
	<g display="none">
		<path display="inline" fill="#85B81C" d="M40.706,1944.769c-3.45-6.459-6.782-13.176-10.025-20.145
			c-3.219-6.986-6.249-14.039-9.068-21.174c-2.798-7.137-5.39-14.27-7.72-21.395c-2.33-7.135-4.334-14.139-6.017-21.018h10.963
			c1.14,5.07,2.631,10.551,4.428,16.416c1.797,5.873,3.825,11.912,6.086,18.162c2.286,6.236,4.778,12.639,7.533,19.189
			c2.749,6.564,5.735,13.012,8.974,19.342c2.354-6.527,4.457-12.695,6.274-18.514c1.816-5.807,3.5-11.59,5.035-17.348
			c1.565-5.76,3.056-11.646,4.502-17.674s2.912-12.545,4.408-19.574h10.326c-3.45,15.342-7.32,30.264-11.61,44.77
			c-4.29,14.488-8.979,27.746-14.058,39.752c-2.029,4.77-4.082,8.861-6.205,12.301c-2.122,3.439-4.501,6.262-7.088,8.477
			c-2.611,2.227-5.642,3.869-9.093,4.918c-3.45,1.063-7.508,1.588-12.172,1.588c-2.656,0-5.084-0.305-7.251-0.945
			c-2.167-0.643-3.52-1.109-4.058-1.434l2.054-8.559c0.439,0.316,1.629,0.771,3.589,1.354c1.959,0.57,3.988,0.863,6.11,0.863
			c2.982,0,5.643-0.314,8.042-0.957c2.379-0.629,4.526-1.713,6.437-3.24c1.915-1.541,3.638-3.521,5.153-5.945
			C37.794,1951.542,39.284,1948.476,40.706,1944.769z"/>
		<path display="inline" fill="#85B81C" d="M163.474,1902.123c0,6.434-0.933,12.311-2.774,17.605
			c-1.866,5.281-4.457,9.768-7.789,13.475c-3.313,3.697-7.251,6.576-11.797,8.641c-4.551,2.064-9.586,3.088-15.065,3.088
			c-5.503,0-10.539-1.023-15.084-3.088c-4.547-2.064-8.466-4.943-11.798-8.641c-3.337-3.707-5.923-8.193-7.789-13.475
			c-1.841-5.295-2.774-11.172-2.774-17.605c0-6.459,0.933-12.324,2.774-17.605c1.866-5.291,4.452-9.814,7.789-13.568
			c3.332-3.754,7.251-6.66,11.798-8.723c4.546-2.064,9.581-3.1,15.084-3.1c5.479,0,10.514,1.035,15.065,3.1
			c4.546,2.063,8.485,4.969,11.797,8.723c3.332,3.754,5.923,8.277,7.789,13.568C162.541,1889.798,163.474,1895.664,163.474,1902.123
			z M152.515,1902.123c0-10.26-2.379-18.432-7.138-24.506c-4.758-6.086-11.19-9.117-19.33-9.117c-8.16,0-14.596,3.031-19.354,9.117
			c-4.753,6.074-7.133,14.246-7.133,24.506c0,10.248,2.379,18.396,7.133,24.412c4.758,6.027,11.195,9.047,19.354,9.047
			c8.14,0,14.572-3.02,19.33-9.047C150.136,1920.519,152.515,1912.371,152.515,1902.123z"/>
		<path display="inline" fill="#85B81C" d="M248.79,1940.175c-3.08,0.852-7.182,1.795-12.385,2.855
			c-5.173,1.061-11.516,1.588-19.024,1.588c-6.13,0-11.264-0.898-15.391-2.693c-4.102-1.797-7.438-4.34-9.98-7.613
			c-2.537-3.275-4.359-7.24-5.479-11.904c-1.096-4.641-1.653-9.77-1.653-15.377v-45.992h10.307v42.668
			c0,5.809,0.419,10.727,1.259,14.736c0.864,4.023,2.236,7.277,4.126,9.76c1.911,2.482,4.359,4.277,7.389,5.398
			c3.012,1.107,6.669,1.654,11.008,1.654c4.872,0,9.093-0.256,12.686-0.793c3.613-0.523,5.874-1.002,6.832-1.422v-72.002h10.307
			V1940.175z"/>
		<path display="inline" fill="#85B81C" d="M303.981,1859.451c3.382,0,6.575,0.258,9.581,0.793c3.031,0.539,5.109,1.049,6.274,1.588
			l-2.054,8.883c-0.864-0.42-2.567-0.875-5.153-1.354c-2.611-0.467-6.018-0.711-10.238-0.711c-4.453,0-8.021,0.316-10.702,0.945
			c-2.705,0.643-4.477,1.166-5.316,1.584v71.852h-10.307v-78.193c2.636-1.166,6.274-2.355,10.938-3.566
			C291.671,1860.058,297.313,1859.451,303.981,1859.451z"/>
		<path display="inline" fill="#85B81C" d="M388.365,1935.732c5.924,0,10.796-0.967,14.666-2.924c3.845-1.959,5.78-5.27,5.78-9.91
			c0-2.229-0.345-4.129-1.022-5.713c-0.701-1.588-1.821-3.021-3.406-4.289c-1.584-1.262-3.682-2.473-6.274-3.639
			c-2.586-1.168-5.78-2.541-9.581-4.127c-3.08-1.271-5.992-2.566-8.747-3.895c-2.749-1.318-5.173-2.846-7.271-4.592
			c-2.123-1.75-3.826-3.826-5.084-6.275c-1.284-2.424-1.911-5.385-1.911-8.869c0-6.66,2.518-12.057,7.528-16.184
			c5.04-4.115,11.94-6.189,20.707-6.189c5.598,0,10.237,0.488,13.875,1.434c3.658,0.945,6.2,1.807,7.69,2.541l-2.375,9.199
			c-1.264-0.629-3.406-1.48-6.417-2.543c-3.03-1.049-7.434-1.586-13.243-1.586c-2.33,0-4.521,0.234-6.595,0.723
			c-2.054,0.467-3.875,1.215-5.46,2.217c-1.584,1.002-2.868,2.285-3.82,3.822c-0.933,1.541-1.427,3.406-1.427,5.643
			c0,2.217,0.42,4.129,1.284,5.713c0.839,1.588,2.078,2.998,3.707,4.221c1.659,1.213,3.663,2.355,6.042,3.404
			c2.38,1.051,5.104,2.203,8.16,3.475c3.169,1.26,6.225,2.543,9.117,3.871c2.913,1.305,5.479,2.893,7.696,4.732
			c2.216,1.867,4.008,4.08,5.385,6.67c1.377,2.588,2.073,5.842,2.073,9.746c0,7.414-2.774,13.012-8.322,16.813
			c-5.548,3.811-13.15,5.711-22.756,5.711c-7.207,0-12.686-0.605-16.511-1.818c-3.801-1.213-6.338-2.145-7.602-2.775l2.686-9.361
			c0.326,0.223,1.002,0.549,2.073,1.037c1.052,0.467,2.473,1.004,4.29,1.588c1.797,0.582,3.919,1.07,6.412,1.502
			C382.186,1935.523,385.078,1935.732,388.365,1935.732z"/>
		<path display="inline" fill="#85B81C" d="M460.202,1944.464c-3.495-0.115-6.526-0.557-9.117-1.352
			c-2.611-0.793-4.753-2.004-6.501-3.648c-1.752-1.645-3.08-3.754-3.963-6.344c-0.914-2.598-1.353-5.838-1.353-9.758v-101.498
			l10.302-1.912v103.096c0,2.531,0.236,4.582,0.726,6.098c0.464,1.539,1.189,2.752,2.122,3.662c0.953,0.887,2.212,1.563,3.732,1.982
			c1.535,0.418,3.357,0.791,5.479,1.105L460.202,1944.464z"/>
		<path display="inline" fill="#85B81C" d="M549.813,1902.123c0,6.434-0.933,12.311-2.773,17.605
			c-1.866,5.281-4.458,9.768-7.79,13.475c-3.312,3.697-7.251,6.576-11.797,8.641c-4.551,2.064-9.586,3.088-15.065,3.088
			c-5.504,0-10.538-1.023-15.085-3.088c-4.546-2.064-8.465-4.943-11.797-8.641c-3.337-3.707-5.923-8.193-7.79-13.475
			c-1.841-5.295-2.774-11.172-2.774-17.605c0-6.459,0.933-12.324,2.774-17.605c1.866-5.291,4.453-9.814,7.79-13.568
			c3.332-3.754,7.251-6.66,11.797-8.723c4.547-2.064,9.581-3.1,15.085-3.1c5.479,0,10.514,1.035,15.065,3.1
			c4.546,2.063,8.485,4.969,11.797,8.723c3.332,3.754,5.923,8.277,7.79,13.568C548.88,1889.798,549.813,1895.664,549.813,1902.123z
			 M538.85,1902.123c0-10.26-2.374-18.432-7.133-24.506c-4.759-6.086-11.19-9.117-19.33-9.117c-8.159,0-14.596,3.031-19.354,9.117
			c-4.754,6.074-7.133,14.246-7.133,24.506c0,10.248,2.379,18.396,7.133,24.412c4.758,6.027,11.195,9.047,19.354,9.047
			c8.14,0,14.571-3.02,19.33-9.047C536.476,1920.519,538.85,1912.371,538.85,1902.123z"/>
		<path display="inline" fill="#85B81C" d="M625.613,1933.519c-0.627,0.523-1.585,1.131-2.868,1.818
			c-1.259,0.686-2.819,1.41-4.66,2.145c-1.866,0.734-3.964,1.34-6.343,1.83c-2.379,0.467-5.06,0.701-8.021,0.701
			c-4.758,0-9.35-0.736-13.782-2.217c-4.453-1.48-8.347-3.801-11.659-6.971c-3.332-3.172-6.012-7.275-8.021-12.301
			c-2.004-5.025-3.006-11.121-3.006-18.314c0-5.807,0.883-11.203,2.68-16.182c1.821-4.969,4.383-9.279,7.695-12.918
			c3.332-3.65,7.414-6.506,12.217-8.568c4.803-2.064,10.238-3.092,16.254-3.092c7.622,0,13.732,0.502,18.323,1.506
			c4.596,1.012,8.372,1.982,11.334,2.938v74.859c0,12.264-3.169,21.008-9.513,26.244c-6.343,5.234-15.904,7.846-28.703,7.846
			c-5.292,0-10.075-0.398-14.364-1.189c-4.265-0.793-7.952-1.713-11.003-2.775l2.048-9.352c2.542,1.168,5.993,2.17,10.401,3.01
			c4.383,0.838,8.791,1.271,13.243,1.271c9.725,0,16.769-1.879,21.171-5.633c4.384-3.754,6.576-10.176,6.576-19.258V1933.519z
			 M625.449,1871.029c-1.791-0.525-4.126-1.039-6.969-1.506c-2.868-0.475-6.926-0.721-12.218-0.721
			c-4.433,0-8.372,0.768-11.822,2.309c-3.431,1.537-6.367,3.707-8.791,6.506c-2.448,2.797-4.29,6.131-5.548,9.979
			c-1.283,3.869-1.915,8.115-1.915,12.777c0,5.387,0.75,10.016,2.216,13.875c1.491,3.857,3.431,7.004,5.805,9.443
			c2.379,2.424,5.084,4.195,8.164,5.305c3.051,1.107,6.176,1.668,9.35,1.668c4.665,0,8.905-0.689,12.775-2.066
			c3.85-1.361,6.831-2.949,8.953-4.756V1871.029z"/>
		<path display="inline" fill="#85B81C" d="M687.941,1859.126c5.386,0,9.957,0.77,13.708,2.307c3.757,1.541,6.812,3.65,9.142,6.344
			c2.311,2.705,4.014,5.898,5.06,9.594c1.052,3.697,1.585,7.719,1.585,12.057v51.703c-1.047,0.316-2.587,0.654-4.591,1.027
			c-2.009,0.373-4.339,0.77-6.975,1.189c-2.655,0.42-5.593,0.77-8.812,1.025c-3.219,0.268-6.53,0.396-9.912,0.396
			c-4.334,0-8.322-0.467-11.96-1.422c-3.663-0.955-6.831-2.449-9.536-4.525c-2.681-2.051-4.803-4.699-6.344-7.926
			c-1.516-3.219-2.285-7.158-2.285-11.811c0-4.443,0.839-8.244,2.542-11.414c1.679-3.17,4.058-5.793,7.138-7.857
			c3.051-2.064,6.713-3.568,10.934-4.523c4.221-0.957,8.836-1.422,13.802-1.422c1.471,0,3.03,0.07,4.665,0.232
			c1.658,0.162,3.242,0.373,4.758,0.629c1.54,0.279,2.868,0.535,3.964,0.793c1.12,0.281,1.886,0.514,2.306,0.723v-5.082
			c0-2.846-0.207-5.619-0.627-8.324c-0.42-2.693-1.353-5.131-2.774-7.299c-1.422-2.156-3.45-3.906-6.042-5.223
			c-2.586-1.33-5.992-1.98-10.213-1.98c-6.037,0-10.539,0.418-13.476,1.258c-2.962,0.852-5.129,1.537-6.506,2.076l-1.446-9.049
			c1.797-0.838,4.596-1.631,8.347-2.379C678.124,1859.498,682.65,1859.126,687.941,1859.126z M688.895,1935.582
			c4.013,0,7.532-0.141,10.543-0.396c3.007-0.268,5.573-0.605,7.691-1.037v-28.854c-1.165-0.539-3.006-1.096-5.549-1.68
			c-2.542-0.572-6.017-0.863-10.469-0.863c-2.543,0-5.174,0.188-7.928,0.561c-2.75,0.359-5.292,1.152-7.602,2.377
			c-2.33,1.215-4.24,2.867-5.712,4.99c-1.49,2.123-2.241,4.918-2.241,8.406c0,3.064,0.514,5.654,1.521,7.777
			c1.003,2.109,2.424,3.801,4.29,5.059c1.841,1.281,4.058,2.201,6.644,2.787C682.67,1935.291,685.607,1935.582,688.895,1935.582z"/>
		<path display="inline" fill="#85B81C" d="M743.76,1863.894c3.08-0.852,7.207-1.807,12.385-2.855
			c5.174-1.051,11.517-1.588,19.024-1.588c6.225,0,11.452,0.898,15.623,2.693c4.176,1.807,7.508,4.361,9.98,7.695
			c2.493,3.322,4.265,7.32,5.316,11.973c1.071,4.652,1.585,9.781,1.585,15.389v45.83h-10.307v-42.506
			c0-5.816-0.396-10.727-1.189-14.748c-0.79-4.012-2.123-7.299-3.965-9.842c-1.841-2.529-4.265-4.357-7.295-5.453
			c-3.012-1.121-6.787-1.68-11.334-1.68c-4.871,0-9.072,0.268-12.616,0.793c-3.544,0.535-5.825,1.014-6.901,1.434v72.002H743.76
			V1863.894z"/>
		<path display="inline" fill="#85B81C" d="M870.166,1943.031v-121.166l10.301-1.912v43.463c3.382-1.271,6.832-2.238,10.307-2.938
			c3.5-0.676,6.995-1.027,10.471-1.027c6.342,0,11.634,0.898,15.879,2.693c4.221,1.807,7.602,4.361,10.145,7.695
			c2.541,3.322,4.313,7.32,5.315,11.973c1.003,4.652,1.491,9.781,1.491,15.389v45.83h-10.307v-42.506
			c0-5.816-0.396-10.727-1.189-14.748c-0.79-4.012-2.118-7.299-3.964-9.842c-1.842-2.529-4.314-4.357-7.365-5.453
			c-3.08-1.121-6.925-1.68-11.59-1.68c-1.797,0-3.707,0.164-5.78,0.49c-2.054,0.303-3.988,0.65-5.785,1.025
			c-1.797,0.373-3.406,0.768-4.848,1.188c-1.426,0.422-2.359,0.748-2.779,0.957v70.568H870.166z"/>
		<path display="inline" fill="#85B81C" d="M955.482,1901.958c0-7.193,1.046-13.453,3.1-18.793c2.049-5.34,4.754-9.816,8.091-13.408
			c3.331-3.59,7.132-6.26,11.427-8.008c4.265-1.738,8.692-2.623,13.244-2.623c10.025,0,18.047,3.287,24.014,9.84
			c5.969,6.551,8.955,16.646,8.955,30.287c0,0.852-0.025,1.703-0.069,2.543c-0.05,0.84-0.144,1.645-0.232,2.377h-57.57
			c0.302,10.051,2.799,17.768,7.438,23.156c4.66,5.396,12.055,8.09,22.218,8.09c5.598,0,10.025-0.525,13.313-1.588
			c3.268-1.049,5.646-1.957,7.138-2.705l1.91,8.887c-1.491,0.852-4.265,1.865-8.322,3.018c-4.083,1.154-8.86,1.738-14.364,1.738
			c-7.183,0-13.313-1.049-18.397-3.172c-5.084-2.098-9.255-5.061-12.522-8.871c-3.288-3.813-5.662-8.336-7.133-13.559
			C956.228,1913.919,955.482,1908.197,955.482,1901.958z M1013.704,1895.453c-0.237-8.557-2.241-15.225-6.042-19.98
			c-3.801-4.758-9.186-7.135-16.181-7.135c-3.683,0-6.994,0.732-9.911,2.213c-2.913,1.48-5.43,3.475-7.602,5.945
			c-2.168,2.496-3.871,5.363-5.08,8.65c-1.214,3.279-1.935,6.717-2.146,10.307H1013.704z"/>
		<path display="inline" fill="#85B81C" d="M1075.233,1859.451c3.382,0,6.58,0.258,9.587,0.793c3.03,0.539,5.104,1.049,6.273,1.588
			l-2.054,8.883c-0.864-0.42-2.566-0.875-5.153-1.354c-2.611-0.467-6.018-0.711-10.237-0.711c-4.452,0-8.021,0.316-10.702,0.945
			c-2.705,0.643-4.477,1.166-5.316,1.584v71.852h-10.307v-78.193c2.637-1.166,6.274-2.355,10.939-3.566
			C1062.923,1860.058,1068.564,1859.451,1075.233,1859.451z"/>
		<path display="inline" fill="#85B81C" d="M1101.701,1901.958c0-7.193,1.047-13.453,3.1-18.793
			c2.054-5.34,4.759-9.816,8.091-13.408c3.337-3.59,7.138-6.26,11.428-8.008c4.265-1.738,8.697-2.623,13.243-2.623
			c10.025,0,18.047,3.287,24.015,9.84c5.973,6.551,8.954,16.646,8.954,30.287c0,0.852-0.02,1.703-0.068,2.543
			c-0.045,0.84-0.139,1.645-0.232,2.377h-57.57c0.301,10.051,2.799,17.768,7.438,23.156c4.665,5.396,12.054,8.09,22.223,8.09
			c5.593,0,10.025-0.525,13.313-1.588c3.263-1.049,5.643-1.957,7.133-2.705l1.915,8.887c-1.495,0.852-4.27,1.865-8.327,3.018
			c-4.077,1.154-8.86,1.738-14.364,1.738c-7.177,0-13.313-1.049-18.396-3.172c-5.08-2.098-9.256-5.061-12.519-8.871
			c-3.287-3.813-5.667-8.336-7.138-13.559C1102.447,1913.919,1101.701,1908.197,1101.701,1901.958z M1159.924,1895.453
			c-0.232-8.557-2.241-15.225-6.037-19.98c-3.801-4.758-9.191-7.135-16.186-7.135c-3.683,0-6.995,0.732-9.907,2.213
			c-2.917,1.48-5.435,3.475-7.602,5.945c-2.172,2.496-3.87,5.363-5.084,8.65c-1.215,3.279-1.936,6.717-2.147,10.307H1159.924z"/>
	</g>
	<defs>
		<filter id="Adobe_OpacityMaskFilter" filterUnits="userSpaceOnUse" x="-130.185" y="1082.286" width="537.342" height="140.543">
			<feFlood  style="flood-color:white;flood-opacity:1" result="back"/>
			<feBlend  in="SourceGraphic" in2="back" mode="normal"/>
		</filter>
	</defs>
	<mask maskUnits="userSpaceOnUse" x="-130.185" y="1082.286" width="537.342" height="140.543" id="SVGID_1_">
		<g filter="url(#Adobe_OpacityMaskFilter)">
			<defs>
				
					<filter id="Adobe_OpacityMaskFilter_1_" filterUnits="userSpaceOnUse" x="-130.185" y="1082.286" width="537.342" height="140.543">
					<feFlood  style="flood-color:white;flood-opacity:1" result="back"/>
					<feBlend  in="SourceGraphic" in2="back" mode="normal"/>
				</filter>
			</defs>
			<mask maskUnits="userSpaceOnUse" x="-130.185" y="1082.286" width="537.342" height="140.543" id="SVGID_1_">
				<g filter="url(#Adobe_OpacityMaskFilter_1_)">
				</g>
			</mask>
			<linearGradient id="SVGID_2_" gradientUnits="userSpaceOnUse" x1="-130.1846" y1="1152.5571" x2="407.1572" y2="1152.5571">
				<stop  offset="0" style="stop-color:#121212"/>
				<stop  offset="0.1559" style="stop-color:#151515"/>
				<stop  offset="0.2891" style="stop-color:#202020"/>
				<stop  offset="0.4139" style="stop-color:#313131"/>
				<stop  offset="0.5336" style="stop-color:#4A4A4A"/>
				<stop  offset="0.6498" style="stop-color:#6A6A6A"/>
				<stop  offset="0.7633" style="stop-color:#929292"/>
				<stop  offset="0.8745" style="stop-color:#C0C0C0"/>
				<stop  offset="0.9814" style="stop-color:#F5F5F5"/>
				<stop  offset="1" style="stop-color:#FFFFFF"/>
			</linearGradient>
			<path mask="url(#SVGID_1_)" fill="url(#SVGID_2_)" d="M158.527,1082.286c-173.872,13.802-288.712,37.493-288.712,64.435
				c0,38.369,232.637,70.162,537.342,76.108C310.438,1197.995,224.751,1148.598,158.527,1082.286z"/>
		</g>
	</mask>
	<linearGradient id="SVGID_3_" gradientUnits="userSpaceOnUse" x1="-130.1846" y1="1152.5571" x2="407.1572" y2="1152.5571">
		<stop  offset="0" style="stop-color:#9F9FA0"/>
		<stop  offset="0.9288" style="stop-color:#9F9FA0"/>
		<stop  offset="1" style="stop-color:#9F9FA0"/>
	</linearGradient>
	<path display="none" fill="url(#SVGID_3_)" d="M158.527,1082.286c-173.872,13.802-288.712,37.493-288.712,64.435
		c0,38.369,232.637,70.162,537.342,76.108C310.438,1197.995,224.751,1148.598,158.527,1082.286z"/>
	<linearGradient id="SVGID_4_" gradientUnits="userSpaceOnUse" x1="34.6196" y1="629.9229" x2="1156.1914" y2="629.9229">
		<stop  offset="0" style="stop-color:#C4D700"/>
		<stop  offset="0.0976" style="stop-color:#BED500"/>
		<stop  offset="1" style="stop-color:#8ABE1D"/>
	</linearGradient>
	<path fill="url(#SVGID_4_)" d="M749.658,35.993c182.412,75.337,312.125,267.213,312.125,492.129
		c0,53.886-7.509,105.835-21.335,154.778c-2.147,7.812-4.595,15.26-6.975,22.746c-17.439,52.918-43.927,100.821-73.539,145.405
		c-130.295,196.038-352.951,191.526-352.951,191.526c-246.038,0-445.494-171.638-445.494-383.367
		c0-103.435,47.684-197.216,125.048-266.165h-0.069c0,0-198.172,57.396-242.845,268.799c-4.245,20.729-7.138,41.888-8.327,63.479
		c-0.419,7.999-0.676,16.159-0.676,24.53c0,261.792,230.539,473.999,514.887,473.999c23.525,0,46.657-1.598,69.323-4.406v0.313
		c302.42-34.671,537.361-293.104,537.361-606.951C1156.191,346.016,986.373,119.282,749.658,35.993z"/>
	<path fill="#85B81C" d="M403.776,440.123c2.986-3.521,6.343-11.39,9.655-21.032c12.543-6.646,20.82-13.687,19.374-16.929
		c-1.026-2.238-6.387-2.203-13.92-0.326c1.679-5.806,3.288-11.694,4.803-17.301c10.938-6.179,17.884-12.428,16.531-15.424
		c-0.933-2.076-5.667-2.181-12.38-0.688c1.634-6.541,2.913-11.729,3.638-14.446c1.703-6.365,5.198-11.227,8.16-14.421l33.136-14.994
		c16.294-7.379,27.021-18.862,23.946-25.672c-3.081-6.785-18.772-6.294-35.092,1.073l-33.136,15.004
		c-4.334,0.105-10.307-0.454-16.206-3.392c-2.518-1.248-7.251-3.707-13.244-6.785c5.548-4.07,8.584-7.683,7.626-9.77
		c-1.353-3.009-10.608-1.877-22.479,2.261c-5.198-2.588-10.702-5.246-16.181-7.811c6.388-4.419,9.932-8.43,8.954-10.656
		c-1.471-3.253-12.242-1.691-25.485,3.358c-9.468-3.871-17.583-6.564-22.173-6.622c-15.648-0.257-21.709,2.11-8.628,9.664
		c13.056,7.578,52.6,42.099,54.747,46.902c1.283,2.751,0.281,5.421-1.096,7.368l-19.794,8.978
		c-13.831,6.225-25.278,13.629-31.897,20.076c-2.498,0.349-5.153,0.116-7.558-1.399c-7.157-4.476-19.606-8.837-25.648-8.358
		c-3.825,0.302-10.144,1.76-5.247,4.266c4.151,2.123,16.181,11.916,21.384,18.444c-2.917,2.157-4.478,4.325-3.87,5.678
		c0.627,1.376,3.312,1.62,6.832,0.886c1.466,8.173,0.908,23.702-0.281,28.225c-1.353,5.316,3.939,1.539,6.693-1.13
		c4.334-4.22,9.28-16.462,10.632-24.798c0.464-2.787,2.073-4.955,3.939-6.599c9.211-0.734,22.336-4.454,36.167-10.69l19.77-8.965
		c2.379,0.244,5.04,1.259,6.318,4.009c2.172,4.792,1.984,57.279-0.933,72.097C387.877,455.034,393.657,452.027,403.776,440.123z"/>
	<g>
		<linearGradient id="SVGID_5_" gradientUnits="userSpaceOnUse" x1="221.7153" y1="623.77" x2="1013.1221" y2="623.77">
			<stop  offset="0" style="stop-color:#C3904C"/>
			<stop  offset="0.3712" style="stop-color:#BC8541"/>
			<stop  offset="1" style="stop-color:#A96C26"/>
		</linearGradient>
		<path fill="url(#SVGID_5_)" d="M227.199,490.978C359.523,521.487,440.082,592.5,511.173,655.176
			c30.663,27.023,59.624,52.545,90.213,72.549l3.269,2.147c14.547,9.29,28.353,16.613,42.272,22.464
			c13.15,6.168,28.398,12.649,45.211,18.667l51.39-1.399c140.302-3.848,230.771-67.712,269.595-189.72
			c-61.164-35.954-91.66,83.243-167.934,24.927c-103.827-79.359-200.221-44.932-256.883-36.841
			c-56.658,8.092-125.236,9.304-198.474-60.437c-46.4-44.174-120.196-32.388-168.116-17.814L227.199,490.978z"/>
	</g>
	<path fill="#0086D1" d="M743.997,786.589c64.328,21.243,127.097,20.917,127.097,20.917c-89,16.45-177.904-14.737-230.722-39.5
		c-16.319-6.856-31.755-15.332-46.726-25.006c-1.096-0.701-1.703-1.086-1.703-1.086l0.118,0.024
		c-103.156-67.48-183.996-191.806-368.688-234.406c-25.648,47.03-39.218,98.573-39.218,151.677
		c0,198.895,189.682,360.702,422.827,360.702h1.259c21.734,0,215.637-5.084,332.807-181.394
		c33.551-50.458,56.075-94.935,70.928-139.972l0.538-1.75c2.098-6.528,4.221-13.081,6.062-19.911
		c11.565-40.794,18.21-82.834,20.007-125.353C1011.532,670.215,934.449,781.379,743.997,786.589z"/>
</g>
</svg>
